<svg
    xmlns="http://www.w3.org/2000/svg"
    xml:space="preserve"
    style="
        fill-rule: evenodd;
        clip-rule: evenodd;
        stroke-linejoin: round;
        stroke-miterlimit: 2;
    "
    viewBox="0 0 800 800"
>
    <path
        d="M41.31 18.584h890.93v885.739H41.31z"
        style="fill: none"
        transform="matrix(.89794 0 0 .9032 -37.093 -16.785)"
    />
    <path
        d="M892.134 397.464c-.304 2.227-1.598 27.726-12.981 48.844-1.044 1.936-7.255 13.459-17.888 20.872-22.794 15.893-37.455 5.009-31.105 13.564 17.572 23.676 38.545 83.64 14.149 153.688-62.207 178.615-279.149 290.43-467.03 207.522C131.509 733.499 97.363 433.409 254.84 267.823c159.63-167.849 357.728-98.488 360.761-97.678 4.299 1.148 28.969-22.319 45.941-13.739 21.589 10.913 12.089 36.508 21.123 40.764 3.796 1.788 50.873-41.265 71.712-17.573 13.301 15.121-1.31 60.866-2.916 65.892-1.261 3.949 40.565 33.041 43.154 80.002 1.555 28.216-.793 29.391 14.573 53.212 22.622 35.069 2.579 41.91-8.247 63.956-2.505 5.102 27.576 27.124 49.309 10.5 27.563-21.083 24.664-77.196 24.677-77.654.204-7.472 13.273-19.904 17.728.991-.038 10.537-.218 10.414-.521 20.968m-257.535 52.554c.656.124 9.622 1.814 7.675 3.288-.013.009-25.394 14.269-31.422 41.264-6.768 30.315 15.645 55.307 38.726 58.567 5.211.736 4.742 1.8 4.469 2.084-27.883 29.007-75.361 21.412-117.006-77.522-5.051-11.998-21.523-6.296-16.061 7.606 35.137 89.422 108.097 142.677 156.882 67.437 1.287-1.985 33.898-23.526 52.713-19.564 93.554 19.702-8.113 245.204-196.079 237.416-32.486-1.345-34.443-2.836-33.043-5.115 5.201-8.467 14.131-16.584 24.08-51.971 13.607-48.403-.84-119.045-57.939-156.152-10.396-6.757-19.753-8.898-20.698-14.931-18.192-116.162 103.222-135.184 115.301-125.517 24.95 19.967 31.667 21.886 72.402 33.11"
        style="fill: #060302"
        transform="translate(-125.889 -112.165)"
    />
    <path
        d="M777.441 405.5c-13.935-7.911-56.025-19.066-65.935 23.966-15.168 1.335-23.24 3.033-40.89 9.358-2.914 1.044-55.604-13.727-55.679-13.778-3.584-2.416 29.934-17.184 26.292-29.449-4.975-16.753-27.675 7.876-44.985 20.458-.144.105-7.435.54-27.597-18.703-6.149-5.869.696-5.542 8.798-8.043 50.81-15.681 62.802-19.151 51.897-30.661-6.668-7.04-50.629 13.06-73.848 18.803-1.479.366-6.466-6.609-9.926-21.964-.615-2.727 1.652-1.822 72.965-13.802 12.003-2.017 10.361-12.054 7.742-14.979-4.336-4.845-5.701-4.641-80.837 8.385-6.233 1.08.762-20.628-1.575-27.735-.64-1.947-17.6-19.161-19.023 17.152-1.811 46.209 13.584 62.858 18.529 71.032 1.169 1.931-.766 1.153-5.89 1.812-8.862 1.141-64.81 8.345-94.579 59.396-27.094 46.467-12.376 83.337-17.373 82.381-6.703-1.282-51.366-9.825-85.074 6.275-1.274.609-16.114 7.697-4.851 16.965 7.235 5.953 8.054 1.833 16.802-1.176 83.563-28.745 162.538 34.602 158.394 121.322-2.626 54.954-37.744 82.678-37.952 90.991-.134 5.323-.376 15.011 64.658 15.742 17.016.191 120.005 1.347 194.369-86.415 84.507-99.732 55.527-188.46-6.383-188.95-18.433-.146-32.549 8.809-33.002 8.959-2.274.75 9.165-44.65 27.393-66.984 5.189-6.359 15.706 21.947 60.505 3.333 3.62-1.504 19.801 14.292 22.681 17.666 75.963 89.002 3.236 208.879-41.863 258.383-191.866 210.607-490.672 103.999-562.951-110.693-1.992-5.917 53.223-9.643 48.617-25.144-5.082-17.102-36.492 3.547-53.392 5.578-3.761.452-10.553-42.232-11.232-45.429-.813-3.825 2.01-2.883 48.29-7.56 23.9-2.415 12.979-19.342 1.991-18.233-4.084.412-49.872 5.032-51.057 5.037-4.741.021-2.099-47.184-1.87-51.282.262-4.675 2.639-1.846 13.938-.492 37.191 4.458 61.767 10.618 52.625-8.323-3.627-7.516-55.399-8.898-63.338-11.683-1.438-.504 4.789-41.51 9.589-40.147 58.934 16.734 62.255 23.329 67.953 13.546 7.02-12.052-12.338-15.5-39.807-24.1-20.566-6.44-25.977-5.881-24.318-10.899 11.528-34.861 13.413-35.971 16.102-34.534 49.819 26.621 60.721 35.415 66.67 27.228 7.918-10.895-5.784-15.057-58.224-43.098-2.886-1.543-4.106-4.106 19.052-36.195 3.153-4.37 3.211 1.944 53.946 40.322 7.248 5.483 16.191-.486 14.392-8.581-1.917-8.628-52.811-43.136-55.495-47.17-1.536-2.309 19.89-25.035 28.856-33.84 3.917-3.846 3.487 1.738 46.338 50.621.599.683 4.967 5.667 10.723 3.727 15.237-5.136 1.199-18.481-24.58-47.958-14.368-16.43-18.677-19.303-14.13-23.007 129.522-105.516 256.525-77.326 302.706-65.675 4.765 1.202-12.598 14.181-17.243 57.226-2.617 24.256 16.735 21.644 17.92 7.999.635-7.309 6.024-69.379 47.317-78.563 12.771-2.84 10.992 40.664 8.588 55.549-5.076 31.416-23.064 18.363-29.287 28.263-10.643 16.932 27.751 19.064 40.389-4.354 11.919-22.084 4.553-37.806 11.972-33.42 91.849 54.293 93.456 98.967 93.873 110.563 1.319 36.657 4.303 36.339 21.907 66.252 5.913 10.048-14.339-5.615-20.593 8.729"
        style="fill: #efa53d"
        transform="translate(-125.889 -112.165)"
    />
    <path
        d="M662.545 462.588c2.583-1.32 18.684-9.549 33.943-12.749 1.839-.386-1.449 5.398-1.689 5.82-13.898 24.446-17.262 53.358-26.68 75.654-5.134 12.153-44.458-1.361-39.325-29.775 4.351-24.082 23.878-33.158 33.751-38.95"
        style="fill: #efa640"
        transform="translate(-125.889 -112.165)"
    />
    <path
        d="M777.441 405.5c-.013 7.813 5.265 11.34 7.664 14.265 10.7 13.052-21.266 35.166-45.424 24.349-12.379-5.543 12.05-5.314 9.896-18.626-3.304-20.421-30.241 3.423-38.071 3.978 9.91-43.032 52-31.877 65.935-23.966"
        style="fill: #fdfdfa"
        transform="translate(-125.889 -112.165)"
    />
    <path
        d="M689.55 257.447c-.276-.433-2.711-1.932-2.63-5.948.487-23.969 40.202 7.486 61.153 35.296 9.246 12.273-6.19 21.394-13.08 12.301-11.41-15.06-11.512-17.843-45.443-41.649"
        style="fill: #0a0301"
        transform="translate(-125.889 -112.165)"
    />
    <path
        d="M715.682 359.372c-11.131-17.901 2.872-31.155 12.828-31.471 30.885-.982 14.082 61.516-12.828 31.471"
        style="fill: #090301"
        transform="translate(-125.889 -112.165)"
    />
    <path
        d="M718.489 220.516c-14.768-10.223-14.721-10.092-15.949-11.041-2.044-1.577 20.66-16.6 34.969-17.818 6.101-.52 6.006 15.574-1.458 40.55-.483 1.617-1.311.653-17.562-11.691"
        style="fill: #eda645"
        transform="translate(-125.889 -112.165)"
    />
</svg>
